<svg id="visual" viewBox="0 0 960 540" width="960" height="540" xmlns="http://www.w3.org/2000/svg" xmlns:xlink="http://www.w3.org/1999/xlink" version="1.1"><g stroke-width="1" stroke-linejoin="bevel"><path d="M486 252L483 235L445 221Z" fill="#0a0a0a" stroke="#0a0a0a"></path><path d="M445 221L452 287L486 252Z" fill="#000000" stroke="#000000"></path><path d="M445 221L428 285L452 287Z" fill="#000000" stroke="#000000"></path><path d="M445 221L412 276L428 285Z" fill="#030303" stroke="#030303"></path><path d="M526 212L480 199L483 235Z" fill="#000000" stroke="#000000"></path><path d="M483 235L480 199L445 221Z" fill="#010101" stroke="#010101"></path><path d="M480 199L428 194L445 221Z" fill="#000000" stroke="#000000"></path><path d="M445 221L386 232L412 276Z" fill="#000000" stroke="#000000"></path><path d="M428 194L386 232L445 221Z" fill="#000000" stroke="#000000"></path><path d="M501 331L514 299L452 287Z" fill="#0b0b0b" stroke="#0b0b0b"></path><path d="M452 287L514 299L486 252Z" fill="#030303" stroke="#030303"></path><path d="M486 252L526 212L483 235Z" fill="#0a0a0a" stroke="#0a0a0a"></path><path d="M556 280L526 212L486 252Z" fill="#010101" stroke="#010101"></path><path d="M453 355L452 287L434 358Z" fill="#0b0b0b" stroke="#0b0b0b"></path><path d="M453 355L501 331L452 287Z" fill="#070707" stroke="#070707"></path><path d="M386 232L360 258L412 276Z" fill="#0d0d0d" stroke="#0d0d0d"></path><path d="M434 358L452 287L428 285Z" fill="#060606" stroke="#060606"></path><path d="M428 194L378 191L386 232Z" fill="#0b0b0b" stroke="#0b0b0b"></path><path d="M386 232L348 199L360 258Z" fill="#0a0a0a" stroke="#0a0a0a"></path><path d="M453 150L428 194L480 199Z" fill="#000000" stroke="#000000"></path><path d="M453 150L430 154L428 194Z" fill="#0b0b0b" stroke="#0b0b0b"></path><path d="M428 194L430 154L378 191Z" fill="#040404" stroke="#040404"></path><path d="M511 157L453 150L480 199Z" fill="#040404" stroke="#040404"></path><path d="M571 288L556 280L514 299Z" fill="#030303" stroke="#030303"></path><path d="M514 299L556 280L486 252Z" fill="#000000" stroke="#000000"></path><path d="M521 163L480 199L526 212Z" fill="#0b0b0b" stroke="#0b0b0b"></path><path d="M521 163L511 157L480 199Z" fill="#000000" stroke="#000000"></path><path d="M434 358L428 285L364 312Z" fill="#000000" stroke="#000000"></path><path d="M587 197L521 163L526 212Z" fill="#0e0e0e" stroke="#0e0e0e"></path><path d="M364 312L428 285L412 276Z" fill="#080808" stroke="#080808"></path><path d="M360 258L364 312L412 276Z" fill="#040404" stroke="#040404"></path><path d="M379 151L348 199L378 191Z" fill="#060606" stroke="#060606"></path><path d="M378 191L348 199L386 232Z" fill="#030303" stroke="#030303"></path><path d="M314 288L354 322L364 312Z" fill="#030303" stroke="#030303"></path><path d="M556 280L576 236L526 212Z" fill="#000000" stroke="#000000"></path><path d="M561 350L571 288L514 299Z" fill="#080808" stroke="#080808"></path><path d="M556 280L571 288L576 236Z" fill="#000000" stroke="#000000"></path><path d="M449 116L379 151L430 154Z" fill="#060606" stroke="#060606"></path><path d="M430 154L379 151L378 191Z" fill="#0d0d0d" stroke="#0d0d0d"></path><path d="M314 288L364 312L360 258Z" fill="#0d0d0d" stroke="#0d0d0d"></path><path d="M364 312L404 386L434 358Z" fill="#0d0d0d" stroke="#0d0d0d"></path><path d="M511 157L449 116L453 150Z" fill="#010101" stroke="#010101"></path><path d="M453 150L449 116L430 154Z" fill="#000000" stroke="#000000"></path><path d="M531 104L449 116L511 157Z" fill="#040404" stroke="#040404"></path><path d="M613 170L587 197L640 237Z" fill="#000000" stroke="#000000"></path><path d="M576 236L587 197L526 212Z" fill="#070707" stroke="#070707"></path><path d="M521 163L531 104L511 157Z" fill="#070707" stroke="#070707"></path><path d="M453 355L521 375L501 331Z" fill="#060606" stroke="#060606"></path><path d="M501 331L561 350L514 299Z" fill="#0e0e0e" stroke="#0e0e0e"></path><path d="M496 407L521 375L453 355Z" fill="#070707" stroke="#070707"></path><path d="M404 386L443 390L434 358Z" fill="#0a0a0a" stroke="#0a0a0a"></path><path d="M434 358L443 390L453 355Z" fill="#0d0d0d" stroke="#0d0d0d"></path><path d="M521 375L561 350L501 331Z" fill="#000000" stroke="#000000"></path><path d="M571 288L637 255L576 236Z" fill="#070707" stroke="#070707"></path><path d="M354 322L404 386L364 312Z" fill="#070707" stroke="#070707"></path><path d="M277 225L314 288L360 258Z" fill="#070707" stroke="#070707"></path><path d="M354 322L358 381L404 386Z" fill="#0e0e0e" stroke="#0e0e0e"></path><path d="M496 407L533 377L521 375Z" fill="#0b0b0b" stroke="#0b0b0b"></path><path d="M521 375L533 377L561 350Z" fill="#000000" stroke="#000000"></path><path d="M561 350L598 309L571 288Z" fill="#0d0d0d" stroke="#0d0d0d"></path><path d="M379 151L325 161L348 199Z" fill="#060606" stroke="#060606"></path><path d="M348 199L277 225L360 258Z" fill="#080808" stroke="#080808"></path><path d="M357 110L325 161L379 151Z" fill="#0b0b0b" stroke="#0b0b0b"></path><path d="M604 135L531 104L521 163Z" fill="#0e0e0e" stroke="#0e0e0e"></path><path d="M443 390L496 407L453 355Z" fill="#030303" stroke="#030303"></path><path d="M432 432L496 407L443 390Z" fill="#0b0b0b" stroke="#0b0b0b"></path><path d="M262 349L358 381L354 322Z" fill="#080808" stroke="#080808"></path><path d="M404 386L432 432L443 390Z" fill="#000000" stroke="#000000"></path><path d="M531 104L473 80L449 116Z" fill="#010101" stroke="#010101"></path><path d="M374 86L357 110L379 151Z" fill="#080808" stroke="#080808"></path><path d="M374 86L379 151L449 116Z" fill="#070707" stroke="#070707"></path><path d="M287 111L299 180L325 161Z" fill="#0e0e0e" stroke="#0e0e0e"></path><path d="M325 161L299 180L348 199Z" fill="#070707" stroke="#070707"></path><path d="M640 237L587 197L576 236Z" fill="#030303" stroke="#030303"></path><path d="M587 197L604 135L521 163Z" fill="#040404" stroke="#040404"></path><path d="M345 402L359 399L358 381Z" fill="#000000" stroke="#000000"></path><path d="M358 381L359 399L404 386Z" fill="#0b0b0b" stroke="#0b0b0b"></path><path d="M598 309L637 255L571 288Z" fill="#0e0e0e" stroke="#0e0e0e"></path><path d="M299 180L277 225L348 199Z" fill="#000000" stroke="#000000"></path><path d="M314 288L285 311L354 322Z" fill="#0a0a0a" stroke="#0a0a0a"></path><path d="M457 61L374 86L449 116Z" fill="#080808" stroke="#080808"></path><path d="M357 110L287 111L325 161Z" fill="#0b0b0b" stroke="#0b0b0b"></path><path d="M257 248L285 311L314 288Z" fill="#060606" stroke="#060606"></path><path d="M637 255L640 237L576 236Z" fill="#040404" stroke="#040404"></path><path d="M359 399L432 432L404 386Z" fill="#070707" stroke="#070707"></path><path d="M632 136L604 135L613 170Z" fill="#0e0e0e" stroke="#0e0e0e"></path><path d="M613 170L604 135L587 197Z" fill="#0a0a0a" stroke="#0a0a0a"></path><path d="M519 41L457 61L473 80Z" fill="#040404" stroke="#040404"></path><path d="M473 80L457 61L449 116Z" fill="#040404" stroke="#040404"></path><path d="M519 41L473 80L531 104Z" fill="#040404" stroke="#040404"></path><path d="M262 349L345 402L358 381Z" fill="#0e0e0e" stroke="#0e0e0e"></path><path d="M359 399L409 465L432 432Z" fill="#070707" stroke="#070707"></path><path d="M637 255L650 249L640 237Z" fill="#0a0a0a" stroke="#0a0a0a"></path><path d="M685 177L632 136L613 170Z" fill="#0e0e0e" stroke="#0e0e0e"></path><path d="M677 310L649 253L637 255Z" fill="#080808" stroke="#080808"></path><path d="M641 326L637 255L598 309Z" fill="#010101" stroke="#010101"></path><path d="M649 253L650 249L637 255Z" fill="#030303" stroke="#030303"></path><path d="M533 377L578 400L561 350Z" fill="#0b0b0b" stroke="#0b0b0b"></path><path d="M618 378L641 326L598 309Z" fill="#070707" stroke="#070707"></path><path d="M515 444L578 400L533 377Z" fill="#0e0e0e" stroke="#0e0e0e"></path><path d="M515 444L533 377L496 407Z" fill="#0e0e0e" stroke="#0e0e0e"></path><path d="M238 177L257 248L277 225Z" fill="#040404" stroke="#040404"></path><path d="M277 225L257 248L314 288Z" fill="#0d0d0d" stroke="#0d0d0d"></path><path d="M618 378L598 309L561 350Z" fill="#030303" stroke="#030303"></path><path d="M649 253L704 254L650 249Z" fill="#030303" stroke="#030303"></path><path d="M604 135L562 77L531 104Z" fill="#000000" stroke="#000000"></path><path d="M479 460L515 444L496 407Z" fill="#0e0e0e" stroke="#0e0e0e"></path><path d="M338 17L329 86L374 86Z" fill="#0b0b0b" stroke="#0b0b0b"></path><path d="M374 86L329 86L357 110Z" fill="#060606" stroke="#060606"></path><path d="M299 180L238 177L277 225Z" fill="#0e0e0e" stroke="#0e0e0e"></path><path d="M630 394L618 378L578 400Z" fill="#0a0a0a" stroke="#0a0a0a"></path><path d="M578 400L618 378L561 350Z" fill="#0d0d0d" stroke="#0d0d0d"></path><path d="M643 119L632 136L655 119Z" fill="#030303" stroke="#030303"></path><path d="M604 135L618 70L562 77Z" fill="#0d0d0d" stroke="#0d0d0d"></path><path d="M409 465L479 460L432 432Z" fill="#0d0d0d" stroke="#0d0d0d"></path><path d="M432 432L479 460L496 407Z" fill="#0e0e0e" stroke="#0e0e0e"></path><path d="M555 52L519 41L531 104Z" fill="#0d0d0d" stroke="#0d0d0d"></path><path d="M418 0L370 16L374 86Z" fill="#0e0e0e" stroke="#0e0e0e"></path><path d="M329 86L287 111L357 110Z" fill="#040404" stroke="#040404"></path><path d="M228 333L262 349L285 311Z" fill="#0a0a0a" stroke="#0a0a0a"></path><path d="M285 311L262 349L354 322Z" fill="#070707" stroke="#070707"></path><path d="M618 70L555 52L562 77Z" fill="#080808" stroke="#080808"></path><path d="M562 77L555 52L531 104Z" fill="#0a0a0a" stroke="#0a0a0a"></path><path d="M326 442L359 399L345 402Z" fill="#080808" stroke="#080808"></path><path d="M326 442L409 465L359 399Z" fill="#0d0d0d" stroke="#0d0d0d"></path><path d="M603 432L630 394L578 400Z" fill="#040404" stroke="#040404"></path><path d="M618 378L630 394L641 326Z" fill="#0d0d0d" stroke="#0d0d0d"></path><path d="M603 432L578 400L515 444Z" fill="#040404" stroke="#040404"></path><path d="M655 119L632 136L685 177Z" fill="#000000" stroke="#000000"></path><path d="M632 136L643 119L604 135Z" fill="#000000" stroke="#000000"></path><path d="M691 332L677 310L641 326Z" fill="#070707" stroke="#070707"></path><path d="M641 326L677 310L637 255Z" fill="#080808" stroke="#080808"></path><path d="M685 177L613 170L640 237Z" fill="#000000" stroke="#000000"></path><path d="M238 147L238 177L299 180Z" fill="#030303" stroke="#030303"></path><path d="M257 248L215 277L285 311Z" fill="#010101" stroke="#010101"></path><path d="M271 417L326 442L345 402Z" fill="#060606" stroke="#060606"></path><path d="M503 0L497 18L519 41Z" fill="#040404" stroke="#040404"></path><path d="M519 41L497 18L457 61Z" fill="#040404" stroke="#040404"></path><path d="M628 465L603 432L549 513Z" fill="#0e0e0e" stroke="#0e0e0e"></path><path d="M685 177L640 237L650 249Z" fill="#030303" stroke="#030303"></path><path d="M643 119L618 70L604 135Z" fill="#0a0a0a" stroke="#0a0a0a"></path><path d="M269 67L279 89L329 86Z" fill="#080808" stroke="#080808"></path><path d="M329 86L279 89L287 111Z" fill="#010101" stroke="#010101"></path><path d="M287 111L238 147L299 180Z" fill="#060606" stroke="#060606"></path><path d="M704 254L685 177L650 249Z" fill="#060606" stroke="#060606"></path><path d="M648 62L618 70L643 119Z" fill="#0b0b0b" stroke="#0b0b0b"></path><path d="M567 0L503 0L519 41Z" fill="#070707" stroke="#070707"></path><path d="M220 106L238 147L287 111Z" fill="#000000" stroke="#000000"></path><path d="M373 502L411 485L409 465Z" fill="#0a0a0a" stroke="#0a0a0a"></path><path d="M409 465L456 499L479 460Z" fill="#0e0e0e" stroke="#0e0e0e"></path><path d="M479 460L549 513L515 444Z" fill="#060606" stroke="#060606"></path><path d="M199 241L257 248L238 177Z" fill="#0a0a0a" stroke="#0a0a0a"></path><path d="M199 241L215 277L257 248Z" fill="#040404" stroke="#040404"></path><path d="M215 277L228 333L285 311Z" fill="#010101" stroke="#010101"></path><path d="M262 349L271 417L345 402Z" fill="#0e0e0e" stroke="#0e0e0e"></path><path d="M677 310L704 254L649 253Z" fill="#070707" stroke="#070707"></path><path d="M418 0L374 86L457 61Z" fill="#070707" stroke="#070707"></path><path d="M497 18L455 0L457 61Z" fill="#030303" stroke="#030303"></path><path d="M695 375L691 332L641 326Z" fill="#070707" stroke="#070707"></path><path d="M677 310L714 305L704 254Z" fill="#070707" stroke="#070707"></path><path d="M695 375L641 326L630 394Z" fill="#080808" stroke="#080808"></path><path d="M411 485L456 499L409 465Z" fill="#010101" stroke="#010101"></path><path d="M218 394L271 417L262 349Z" fill="#0d0d0d" stroke="#0d0d0d"></path><path d="M326 442L373 502L409 465Z" fill="#000000" stroke="#000000"></path><path d="M603 432L653 404L630 394Z" fill="#070707" stroke="#070707"></path><path d="M455 0L418 0L457 61Z" fill="#030303" stroke="#030303"></path><path d="M497 18L503 0L455 0Z" fill="#0b0b0b" stroke="#0b0b0b"></path><path d="M567 0L519 41L555 52Z" fill="#0e0e0e" stroke="#0e0e0e"></path><path d="M199 181L199 241L238 177Z" fill="#080808" stroke="#080808"></path><path d="M215 277L196 297L228 333Z" fill="#080808" stroke="#080808"></path><path d="M370 16L338 17L374 86Z" fill="#070707" stroke="#070707"></path><path d="M365 0L338 17L370 16Z" fill="#070707" stroke="#070707"></path><path d="M338 17L269 67L329 86Z" fill="#030303" stroke="#030303"></path><path d="M279 89L220 106L287 111Z" fill="#070707" stroke="#070707"></path><path d="M238 147L199 181L238 177Z" fill="#040404" stroke="#040404"></path><path d="M418 0L372 0L370 16Z" fill="#040404" stroke="#040404"></path><path d="M738 340L714 305L691 332Z" fill="#000000" stroke="#000000"></path><path d="M691 332L714 305L677 310Z" fill="#040404" stroke="#040404"></path><path d="M280 0L265 66L269 67Z" fill="#070707" stroke="#070707"></path><path d="M269 67L265 66L279 89Z" fill="#070707" stroke="#070707"></path><path d="M372 0L365 0L370 16Z" fill="#010101" stroke="#010101"></path><path d="M177 249L196 297L215 277Z" fill="#0b0b0b" stroke="#0b0b0b"></path><path d="M228 333L215 374L262 349Z" fill="#040404" stroke="#040404"></path><path d="M169 115L199 181L238 147Z" fill="#030303" stroke="#030303"></path><path d="M199 241L177 249L215 277Z" fill="#0b0b0b" stroke="#0b0b0b"></path><path d="M330 511L373 502L326 442Z" fill="#080808" stroke="#080808"></path><path d="M411 485L403 540L456 499Z" fill="#0d0d0d" stroke="#0d0d0d"></path><path d="M655 119L648 62L643 119Z" fill="#070707" stroke="#070707"></path><path d="M609 0L567 0L555 52Z" fill="#070707" stroke="#070707"></path><path d="M705 76L648 62L655 119Z" fill="#0b0b0b" stroke="#0b0b0b"></path><path d="M653 404L695 375L630 394Z" fill="#0a0a0a" stroke="#0a0a0a"></path><path d="M609 0L555 52L618 70Z" fill="#070707" stroke="#070707"></path><path d="M173 380L215 374L228 333Z" fill="#030303" stroke="#030303"></path><path d="M271 417L284 473L326 442Z" fill="#010101" stroke="#010101"></path><path d="M265 66L220 106L279 89Z" fill="#070707" stroke="#070707"></path><path d="M603 432L668 429L653 404Z" fill="#0e0e0e" stroke="#0e0e0e"></path><path d="M653 404L668 429L695 375Z" fill="#040404" stroke="#040404"></path><path d="M549 513L603 432L515 444Z" fill="#0b0b0b" stroke="#0b0b0b"></path><path d="M628 465L668 429L603 432Z" fill="#030303" stroke="#030303"></path><path d="M210 383L218 394L215 374Z" fill="#080808" stroke="#080808"></path><path d="M215 374L218 394L262 349Z" fill="#0a0a0a" stroke="#0a0a0a"></path><path d="M199 181L177 249L199 241Z" fill="#040404" stroke="#040404"></path><path d="M173 380L210 383L215 374Z" fill="#040404" stroke="#040404"></path><path d="M152 292L112 241L139 295Z" fill="#0a0a0a" stroke="#0a0a0a"></path><path d="M552 518L549 513L553 540Z" fill="#030303" stroke="#030303"></path><path d="M496 540L549 513L479 460Z" fill="#0a0a0a" stroke="#0a0a0a"></path><path d="M173 380L228 333L196 297Z" fill="#0a0a0a" stroke="#0a0a0a"></path><path d="M265 66L215 101L220 106Z" fill="#070707" stroke="#070707"></path><path d="M220 106L169 115L238 147Z" fill="#000000" stroke="#000000"></path><path d="M263 463L284 473L271 417Z" fill="#0b0b0b" stroke="#0b0b0b"></path><path d="M748 282L738 211L704 254Z" fill="#000000" stroke="#000000"></path><path d="M704 254L738 211L685 177Z" fill="#070707" stroke="#070707"></path><path d="M685 177L734 154L655 119Z" fill="#0b0b0b" stroke="#0b0b0b"></path><path d="M496 540L479 460L456 499Z" fill="#0b0b0b" stroke="#0b0b0b"></path><path d="M549 513L633 484L628 465Z" fill="#0b0b0b" stroke="#0b0b0b"></path><path d="M212 468L263 463L271 417Z" fill="#0e0e0e" stroke="#0e0e0e"></path><path d="M212 468L271 417L218 394Z" fill="#040404" stroke="#040404"></path><path d="M308 540L330 511L291 540Z" fill="#060606" stroke="#060606"></path><path d="M284 473L330 511L326 442Z" fill="#070707" stroke="#070707"></path><path d="M403 540L496 540L456 499Z" fill="#070707" stroke="#070707"></path><path d="M648 62L609 0L618 70Z" fill="#030303" stroke="#030303"></path><path d="M738 211L734 154L685 177Z" fill="#010101" stroke="#010101"></path><path d="M648 62L667 19L609 0Z" fill="#0b0b0b" stroke="#0b0b0b"></path><path d="M714 305L748 282L704 254Z" fill="#060606" stroke="#060606"></path><path d="M738 211L744 158L734 154Z" fill="#060606" stroke="#060606"></path><path d="M738 340L748 282L714 305Z" fill="#040404" stroke="#040404"></path><path d="M738 340L691 332L736 360Z" fill="#010101" stroke="#010101"></path><path d="M403 540L411 485L373 502Z" fill="#070707" stroke="#070707"></path><path d="M628 465L649 495L668 429Z" fill="#080808" stroke="#080808"></path><path d="M552 518L633 484L549 513Z" fill="#060606" stroke="#060606"></path><path d="M736 360L695 375L739 389Z" fill="#070707" stroke="#070707"></path><path d="M736 360L691 332L695 375Z" fill="#040404" stroke="#040404"></path><path d="M355 540L403 540L373 502Z" fill="#030303" stroke="#030303"></path><path d="M739 389L695 375L668 429Z" fill="#080808" stroke="#080808"></path><path d="M789 298L788 227L748 282Z" fill="#080808" stroke="#080808"></path><path d="M770 178L744 158L738 211Z" fill="#030303" stroke="#030303"></path><path d="M740 106L705 76L655 119Z" fill="#070707" stroke="#070707"></path><path d="M740 106L655 119L734 154Z" fill="#070707" stroke="#070707"></path><path d="M338 17L280 0L269 67Z" fill="#040404" stroke="#040404"></path><path d="M265 66L221 47L215 101Z" fill="#040404" stroke="#040404"></path><path d="M365 0L280 0L338 17Z" fill="#0a0a0a" stroke="#0a0a0a"></path><path d="M496 540L553 540L549 513Z" fill="#000000" stroke="#000000"></path><path d="M552 518L632 540L633 484Z" fill="#080808" stroke="#080808"></path><path d="M136 200L177 249L199 181Z" fill="#040404" stroke="#040404"></path><path d="M177 249L152 292L196 297Z" fill="#000000" stroke="#000000"></path><path d="M553 540L555 540L552 518Z" fill="#0b0b0b" stroke="#0b0b0b"></path><path d="M330 511L355 540L373 502Z" fill="#0a0a0a" stroke="#0a0a0a"></path><path d="M308 540L355 540L330 511Z" fill="#0e0e0e" stroke="#0e0e0e"></path><path d="M266 0L221 47L265 66Z" fill="#080808" stroke="#080808"></path><path d="M215 101L169 115L220 106Z" fill="#030303" stroke="#030303"></path><path d="M707 60L667 19L648 62Z" fill="#0d0d0d" stroke="#0d0d0d"></path><path d="M163 379L173 380L196 297Z" fill="#040404" stroke="#040404"></path><path d="M210 383L173 380L218 394Z" fill="#030303" stroke="#030303"></path><path d="M632 540L649 495L633 484Z" fill="#0b0b0b" stroke="#0b0b0b"></path><path d="M633 484L649 495L628 465Z" fill="#080808" stroke="#080808"></path><path d="M280 0L266 0L265 66Z" fill="#030303" stroke="#030303"></path><path d="M740 106L707 60L705 76Z" fill="#040404" stroke="#040404"></path><path d="M705 76L707 60L648 62Z" fill="#040404" stroke="#040404"></path><path d="M725 472L739 389L668 429Z" fill="#010101" stroke="#010101"></path><path d="M802 311L789 298L738 340Z" fill="#070707" stroke="#070707"></path><path d="M158 68L169 115L215 101Z" fill="#060606" stroke="#060606"></path><path d="M744 158L740 106L734 154Z" fill="#0d0d0d" stroke="#0d0d0d"></path><path d="M112 241L152 292L177 249Z" fill="#030303" stroke="#030303"></path><path d="M152 292L163 379L196 297Z" fill="#060606" stroke="#060606"></path><path d="M130 361L163 379L152 292Z" fill="#070707" stroke="#070707"></path><path d="M198 455L212 468L218 394Z" fill="#040404" stroke="#040404"></path><path d="M788 227L770 178L738 211Z" fill="#030303" stroke="#030303"></path><path d="M744 158L789 127L740 106Z" fill="#0e0e0e" stroke="#0e0e0e"></path><path d="M788 227L738 211L748 282Z" fill="#030303" stroke="#030303"></path><path d="M221 47L158 68L215 101Z" fill="#0d0d0d" stroke="#0d0d0d"></path><path d="M266 0L213 37L221 47Z" fill="#0b0b0b" stroke="#0b0b0b"></path><path d="M123 162L136 200L199 181Z" fill="#030303" stroke="#030303"></path><path d="M291 540L284 473L251 540Z" fill="#0d0d0d" stroke="#0d0d0d"></path><path d="M291 540L330 511L284 473Z" fill="#0a0a0a" stroke="#0a0a0a"></path><path d="M198 455L218 394L173 380Z" fill="#060606" stroke="#060606"></path><path d="M145 443L198 455L173 380Z" fill="#0e0e0e" stroke="#0e0e0e"></path><path d="M789 298L748 282L738 340Z" fill="#0e0e0e" stroke="#0e0e0e"></path><path d="M701 540L694 483L649 495Z" fill="#040404" stroke="#040404"></path><path d="M649 495L694 483L668 429Z" fill="#080808" stroke="#080808"></path><path d="M251 540L284 473L263 463Z" fill="#010101" stroke="#010101"></path><path d="M738 340L736 360L790 380Z" fill="#0a0a0a" stroke="#0a0a0a"></path><path d="M802 311L738 340L790 380Z" fill="#010101" stroke="#010101"></path><path d="M555 540L632 540L552 518Z" fill="#040404" stroke="#040404"></path><path d="M789 298L798 230L788 227Z" fill="#040404" stroke="#040404"></path><path d="M788 227L792 168L770 178Z" fill="#010101" stroke="#010101"></path><path d="M770 178L792 168L744 158Z" fill="#030303" stroke="#030303"></path><path d="M123 162L116 203L136 200Z" fill="#0d0d0d" stroke="#0d0d0d"></path><path d="M136 200L112 241L177 249Z" fill="#010101" stroke="#010101"></path><path d="M123 162L199 181L169 115Z" fill="#0d0d0d" stroke="#0d0d0d"></path><path d="M93 111L123 162L169 115Z" fill="#030303" stroke="#030303"></path><path d="M116 203L112 241L136 200Z" fill="#010101" stroke="#010101"></path><path d="M139 295L130 361L152 292Z" fill="#000000" stroke="#000000"></path><path d="M798 230L792 168L788 227Z" fill="#060606" stroke="#060606"></path><path d="M731 0L701 0L707 60Z" fill="#010101" stroke="#010101"></path><path d="M123 371L130 361L69 337Z" fill="#080808" stroke="#080808"></path><path d="M163 379L145 443L173 380Z" fill="#060606" stroke="#060606"></path><path d="M731 0L707 60L763 21Z" fill="#000000" stroke="#000000"></path><path d="M707 60L701 0L667 19Z" fill="#060606" stroke="#060606"></path><path d="M667 19L701 0L609 0Z" fill="#0b0b0b" stroke="#0b0b0b"></path><path d="M205 0L158 68L213 37Z" fill="#060606" stroke="#060606"></path><path d="M213 37L158 68L221 47Z" fill="#080808" stroke="#080808"></path><path d="M748 471L725 472L736 540Z" fill="#070707" stroke="#070707"></path><path d="M694 483L725 472L668 429Z" fill="#070707" stroke="#070707"></path><path d="M790 380L736 360L739 389Z" fill="#070707" stroke="#070707"></path><path d="M789 298L839 251L798 230Z" fill="#0d0d0d" stroke="#0d0d0d"></path><path d="M725 472L762 425L739 389Z" fill="#060606" stroke="#060606"></path><path d="M266 0L205 0L213 37Z" fill="#060606" stroke="#060606"></path><path d="M801 153L789 127L792 168Z" fill="#010101" stroke="#010101"></path><path d="M792 168L789 127L744 158Z" fill="#0e0e0e" stroke="#0e0e0e"></path><path d="M78 303L130 361L139 295Z" fill="#070707" stroke="#070707"></path><path d="M130 361L123 371L163 379Z" fill="#010101" stroke="#010101"></path><path d="M221 518L263 463L212 468Z" fill="#040404" stroke="#040404"></path><path d="M222 519L251 540L263 463Z" fill="#0e0e0e" stroke="#0e0e0e"></path><path d="M221 518L212 468L168 494Z" fill="#030303" stroke="#030303"></path><path d="M851 203L801 153L792 168Z" fill="#040404" stroke="#040404"></path><path d="M851 203L792 168L798 230Z" fill="#0e0e0e" stroke="#0e0e0e"></path><path d="M168 494L212 468L198 455Z" fill="#0a0a0a" stroke="#0a0a0a"></path><path d="M221 518L222 519L263 463Z" fill="#0a0a0a" stroke="#0a0a0a"></path><path d="M762 425L790 380L739 389Z" fill="#0a0a0a" stroke="#0a0a0a"></path><path d="M116 203L95 223L112 241Z" fill="#0b0b0b" stroke="#0b0b0b"></path><path d="M112 241L78 303L139 295Z" fill="#010101" stroke="#010101"></path><path d="M81 162L95 223L116 203Z" fill="#080808" stroke="#080808"></path><path d="M81 162L116 203L123 162Z" fill="#0e0e0e" stroke="#0e0e0e"></path><path d="M69 337L123 391L123 371Z" fill="#0e0e0e" stroke="#0e0e0e"></path><path d="M123 371L123 391L163 379Z" fill="#060606" stroke="#060606"></path><path d="M725 472L748 471L762 425Z" fill="#010101" stroke="#010101"></path><path d="M807 420L822 366L790 380Z" fill="#0b0b0b" stroke="#0b0b0b"></path><path d="M736 540L725 472L694 483Z" fill="#0e0e0e" stroke="#0e0e0e"></path><path d="M123 391L145 443L163 379Z" fill="#030303" stroke="#030303"></path><path d="M221 518L186 540L222 519Z" fill="#010101" stroke="#010101"></path><path d="M763 21L707 60L740 106Z" fill="#070707" stroke="#070707"></path><path d="M763 21L740 106L789 127Z" fill="#030303" stroke="#030303"></path><path d="M124 0L132 58L158 68Z" fill="#0b0b0b" stroke="#0b0b0b"></path><path d="M158 68L93 111L169 115Z" fill="#060606" stroke="#060606"></path><path d="M145 443L168 494L198 455Z" fill="#0d0d0d" stroke="#0d0d0d"></path><path d="M222 519L186 540L251 540Z" fill="#080808" stroke="#080808"></path><path d="M632 540L701 540L649 495Z" fill="#080808" stroke="#080808"></path><path d="M772 0L763 21L810 0Z" fill="#080808" stroke="#080808"></path><path d="M64 252L78 303L112 241Z" fill="#000000" stroke="#000000"></path><path d="M123 391L92 453L145 443Z" fill="#0b0b0b" stroke="#0b0b0b"></path><path d="M145 443L96 493L168 494Z" fill="#080808" stroke="#080808"></path><path d="M841 342L839 251L802 311Z" fill="#010101" stroke="#010101"></path><path d="M802 311L839 251L789 298Z" fill="#0a0a0a" stroke="#0a0a0a"></path><path d="M801 153L842 112L789 127Z" fill="#000000" stroke="#000000"></path><path d="M807 420L790 380L762 425Z" fill="#070707" stroke="#070707"></path><path d="M790 380L822 366L802 311Z" fill="#000000" stroke="#000000"></path><path d="M807 420L762 425L748 471Z" fill="#0a0a0a" stroke="#0a0a0a"></path><path d="M93 111L81 162L123 162Z" fill="#030303" stroke="#030303"></path><path d="M95 223L64 252L112 241Z" fill="#030303" stroke="#030303"></path><path d="M132 58L93 111L158 68Z" fill="#0b0b0b" stroke="#0b0b0b"></path><path d="M827 421L807 420L833 470Z" fill="#040404" stroke="#040404"></path><path d="M42 250L64 252L95 223Z" fill="#030303" stroke="#030303"></path><path d="M856 395L841 342L822 366Z" fill="#060606" stroke="#060606"></path><path d="M822 366L841 342L802 311Z" fill="#040404" stroke="#040404"></path><path d="M882 197L851 203L891 240Z" fill="#0e0e0e" stroke="#0e0e0e"></path><path d="M839 251L851 203L798 230Z" fill="#070707" stroke="#070707"></path><path d="M30 339L69 337L78 303Z" fill="#0e0e0e" stroke="#0e0e0e"></path><path d="M78 303L69 337L130 361Z" fill="#0b0b0b" stroke="#0b0b0b"></path><path d="M146 540L186 540L168 494Z" fill="#0e0e0e" stroke="#0e0e0e"></path><path d="M168 494L186 540L221 518Z" fill="#0e0e0e" stroke="#0e0e0e"></path><path d="M93 111L67 154L81 162Z" fill="#010101" stroke="#010101"></path><path d="M81 162L42 250L95 223Z" fill="#030303" stroke="#030303"></path><path d="M857 64L763 21L789 127Z" fill="#030303" stroke="#030303"></path><path d="M763 21L772 0L731 0Z" fill="#040404" stroke="#040404"></path><path d="M701 540L736 540L694 483Z" fill="#000000" stroke="#000000"></path><path d="M807 420L827 421L822 366Z" fill="#000000" stroke="#000000"></path><path d="M833 470L807 420L748 471Z" fill="#0b0b0b" stroke="#0b0b0b"></path><path d="M863 115L842 112L801 153Z" fill="#040404" stroke="#040404"></path><path d="M736 540L751 540L748 471Z" fill="#070707" stroke="#070707"></path><path d="M64 252L42 250L78 303Z" fill="#0d0d0d" stroke="#0d0d0d"></path><path d="M67 154L42 250L81 162Z" fill="#0b0b0b" stroke="#0b0b0b"></path><path d="M132 58L103 21L93 111Z" fill="#070707" stroke="#070707"></path><path d="M93 111L44 148L67 154Z" fill="#060606" stroke="#060606"></path><path d="M205 0L124 0L158 68Z" fill="#040404" stroke="#040404"></path><path d="M96 493L92 453L74 477Z" fill="#0d0d0d" stroke="#0d0d0d"></path><path d="M34 414L92 453L123 391Z" fill="#080808" stroke="#080808"></path><path d="M124 0L103 21L132 58Z" fill="#0d0d0d" stroke="#0d0d0d"></path><path d="M20 88L44 148L93 111Z" fill="#0d0d0d" stroke="#0d0d0d"></path><path d="M67 154L0 195L42 250Z" fill="#030303" stroke="#030303"></path><path d="M863 425L856 395L827 421Z" fill="#0d0d0d" stroke="#0d0d0d"></path><path d="M827 421L856 395L822 366Z" fill="#030303" stroke="#030303"></path><path d="M891 240L851 203L839 251Z" fill="#040404" stroke="#040404"></path><path d="M96 493L146 540L168 494Z" fill="#0b0b0b" stroke="#0b0b0b"></path><path d="M851 203L863 115L801 153Z" fill="#060606" stroke="#060606"></path><path d="M840 18L810 0L763 21Z" fill="#070707" stroke="#070707"></path><path d="M882 197L863 115L851 203Z" fill="#070707" stroke="#070707"></path><path d="M863 115L862 111L842 112Z" fill="#0a0a0a" stroke="#0a0a0a"></path><path d="M895 329L839 251L841 342Z" fill="#040404" stroke="#040404"></path><path d="M856 395L877 344L841 342Z" fill="#000000" stroke="#000000"></path><path d="M857 64L789 127L842 112Z" fill="#030303" stroke="#030303"></path><path d="M906 257L891 240L839 251Z" fill="#070707" stroke="#070707"></path><path d="M34 414L123 391L69 337Z" fill="#0b0b0b" stroke="#0b0b0b"></path><path d="M92 453L96 493L145 443Z" fill="#0e0e0e" stroke="#0e0e0e"></path><path d="M0 291L78 303L42 250Z" fill="#030303" stroke="#030303"></path><path d="M0 291L30 339L78 303Z" fill="#0d0d0d" stroke="#0d0d0d"></path><path d="M819 540L833 470L748 471Z" fill="#0a0a0a" stroke="#0a0a0a"></path><path d="M856 395L904 379L877 344Z" fill="#0a0a0a" stroke="#0a0a0a"></path><path d="M930 82L857 64L862 111Z" fill="#040404" stroke="#040404"></path><path d="M862 111L857 64L842 112Z" fill="#0d0d0d" stroke="#0d0d0d"></path><path d="M921 119L862 111L863 115Z" fill="#0d0d0d" stroke="#0d0d0d"></path><path d="M905 162L863 115L882 197Z" fill="#0a0a0a" stroke="#0a0a0a"></path><path d="M833 470L863 425L827 421Z" fill="#060606" stroke="#060606"></path><path d="M34 414L74 477L92 453Z" fill="#060606" stroke="#060606"></path><path d="M96 493L116 540L146 540Z" fill="#070707" stroke="#070707"></path><path d="M904 379L895 329L877 344Z" fill="#0a0a0a" stroke="#0a0a0a"></path><path d="M877 344L895 329L841 342Z" fill="#070707" stroke="#070707"></path><path d="M857 64L840 18L763 21Z" fill="#0d0d0d" stroke="#0d0d0d"></path><path d="M39 540L116 540L96 493Z" fill="#0a0a0a" stroke="#0a0a0a"></path><path d="M895 329L906 257L839 251Z" fill="#060606" stroke="#060606"></path><path d="M960 202L905 162L882 197Z" fill="#060606" stroke="#060606"></path><path d="M819 540L844 482L833 470Z" fill="#0b0b0b" stroke="#0b0b0b"></path><path d="M833 470L844 482L863 425Z" fill="#080808" stroke="#080808"></path><path d="M30 339L34 414L69 337Z" fill="#000000" stroke="#000000"></path><path d="M0 195L0 251L42 250Z" fill="#0e0e0e" stroke="#0e0e0e"></path><path d="M30 339L0 378L34 414Z" fill="#000000" stroke="#000000"></path><path d="M960 202L882 197L891 240Z" fill="#000000" stroke="#000000"></path><path d="M857 64L864 0L840 18Z" fill="#030303" stroke="#030303"></path><path d="M0 251L0 278L42 250Z" fill="#010101" stroke="#010101"></path><path d="M0 278L0 291L42 250Z" fill="#030303" stroke="#030303"></path><path d="M124 0L71 0L103 21Z" fill="#0e0e0e" stroke="#0e0e0e"></path><path d="M35 33L20 88L93 111Z" fill="#040404" stroke="#040404"></path><path d="M44 148L0 195L67 154Z" fill="#0e0e0e" stroke="#0e0e0e"></path><path d="M0 148L0 195L44 148Z" fill="#0b0b0b" stroke="#0b0b0b"></path><path d="M35 33L93 111L103 21Z" fill="#040404" stroke="#040404"></path><path d="M751 540L819 540L748 471Z" fill="#080808" stroke="#080808"></path><path d="M908 401L904 379L856 395Z" fill="#0d0d0d" stroke="#0d0d0d"></path><path d="M895 329L960 285L906 257Z" fill="#0e0e0e" stroke="#0e0e0e"></path><path d="M908 401L856 395L863 425Z" fill="#040404" stroke="#040404"></path><path d="M908 401L863 425L914 455Z" fill="#070707" stroke="#070707"></path><path d="M20 88L0 148L44 148Z" fill="#070707" stroke="#070707"></path><path d="M71 0L35 33L103 21Z" fill="#0b0b0b" stroke="#0b0b0b"></path><path d="M20 88L0 92L0 148Z" fill="#060606" stroke="#060606"></path><path d="M0 291L0 378L30 339Z" fill="#0e0e0e" stroke="#0e0e0e"></path><path d="M0 457L38 499L74 477Z" fill="#070707" stroke="#070707"></path><path d="M74 477L38 499L96 493Z" fill="#0a0a0a" stroke="#0a0a0a"></path><path d="M914 455L863 425L905 479Z" fill="#0e0e0e" stroke="#0e0e0e"></path><path d="M960 338L960 285L895 329Z" fill="#030303" stroke="#030303"></path><path d="M960 181L921 119L905 162Z" fill="#080808" stroke="#080808"></path><path d="M894 0L864 0L905 17Z" fill="#010101" stroke="#010101"></path><path d="M840 18L864 0L810 0Z" fill="#040404" stroke="#040404"></path><path d="M930 82L921 119L960 104Z" fill="#040404" stroke="#040404"></path><path d="M905 162L921 119L863 115Z" fill="#030303" stroke="#030303"></path><path d="M0 16L0 92L20 88Z" fill="#070707" stroke="#070707"></path><path d="M0 378L0 415L34 414Z" fill="#040404" stroke="#040404"></path><path d="M0 457L74 477L34 414Z" fill="#030303" stroke="#030303"></path><path d="M71 0L22 0L35 33Z" fill="#0e0e0e" stroke="#0e0e0e"></path><path d="M35 33L0 16L20 88Z" fill="#010101" stroke="#010101"></path><path d="M0 415L0 457L34 414Z" fill="#080808" stroke="#080808"></path><path d="M960 202L891 240L906 257Z" fill="#040404" stroke="#040404"></path><path d="M921 119L930 82L862 111Z" fill="#040404" stroke="#040404"></path><path d="M905 479L863 425L844 482Z" fill="#0b0b0b" stroke="#0b0b0b"></path><path d="M960 338L895 329L904 379Z" fill="#060606" stroke="#060606"></path><path d="M905 17L864 0L857 64Z" fill="#000000" stroke="#000000"></path><path d="M876 540L905 479L844 482Z" fill="#000000" stroke="#000000"></path><path d="M930 82L905 17L857 64Z" fill="#000000" stroke="#000000"></path><path d="M960 338L904 379L960 382Z" fill="#060606" stroke="#060606"></path><path d="M960 285L960 202L906 257Z" fill="#0a0a0a" stroke="#0a0a0a"></path><path d="M960 202L960 181L905 162Z" fill="#0a0a0a" stroke="#0a0a0a"></path><path d="M0 540L39 540L38 499Z" fill="#0b0b0b" stroke="#0b0b0b"></path><path d="M38 499L39 540L96 493Z" fill="#0d0d0d" stroke="#0d0d0d"></path><path d="M819 540L876 540L844 482Z" fill="#000000" stroke="#000000"></path><path d="M904 379L908 401L960 383Z" fill="#000000" stroke="#000000"></path><path d="M960 382L904 379L960 383Z" fill="#030303" stroke="#030303"></path><path d="M22 0L0 16L35 33Z" fill="#0e0e0e" stroke="#0e0e0e"></path><path d="M0 457L0 495L38 499Z" fill="#010101" stroke="#010101"></path><path d="M22 0L0 0L0 16Z" fill="#0a0a0a" stroke="#0a0a0a"></path><path d="M960 383L914 455L960 478Z" fill="#010101" stroke="#010101"></path><path d="M960 383L908 401L914 455Z" fill="#0d0d0d" stroke="#0d0d0d"></path><path d="M960 478L914 455L905 479Z" fill="#0e0e0e" stroke="#0e0e0e"></path><path d="M960 181L960 105L921 119Z" fill="#0e0e0e" stroke="#0e0e0e"></path><path d="M930 82L960 36L905 17Z" fill="#000000" stroke="#000000"></path><path d="M960 105L960 104L921 119Z" fill="#000000" stroke="#000000"></path><path d="M876 540L895 540L905 479Z" fill="#040404" stroke="#040404"></path><path d="M0 495L0 540L38 499Z" fill="#0e0e0e" stroke="#0e0e0e"></path><path d="M960 104L960 36L930 82Z" fill="#030303" stroke="#030303"></path><path d="M905 17L960 0L894 0Z" fill="#070707" stroke="#070707"></path><path d="M960 500L960 478L905 479Z" fill="#0b0b0b" stroke="#0b0b0b"></path><path d="M960 36L960 0L905 17Z" fill="#070707" stroke="#070707"></path><path d="M895 540L960 500L905 479Z" fill="#0e0e0e" stroke="#0e0e0e"></path><path d="M895 540L960 540L960 500Z" fill="#0e0e0e" stroke="#0e0e0e"></path></g></svg>