<svg id="visual" viewBox="0 0 960 540" width="960" height="540" xmlns="http://www.w3.org/2000/svg" xmlns:xlink="http://www.w3.org/1999/xlink" version="1.1"><path d="M0 55L10.7 51.3C21.3 47.7 42.7 40.3 64 42.2C85.3 44 106.7 55 128 68.5C149.3 82 170.7 98 192 93.5C213.3 89 234.7 64 256 65C277.3 66 298.7 93 320 103.8C341.3 114.7 362.7 109.3 384 101.2C405.3 93 426.7 82 448 73.8C469.3 65.7 490.7 60.3 512 64C533.3 67.7 554.7 80.3 576 74C597.3 67.7 618.7 42.3 640 36.8C661.3 31.3 682.7 45.7 704 46.7C725.3 47.7 746.7 35.3 768 26.3C789.3 17.3 810.7 11.7 832 20.7C853.3 29.7 874.7 53.3 896 61.5C917.3 69.7 938.7 62.3 949.3 58.7L960 55L960 0L949.3 0C938.7 0 917.3 0 896 0C874.7 0 853.3 0 832 0C810.7 0 789.3 0 768 0C746.7 0 725.3 0 704 0C682.7 0 661.3 0 640 0C618.7 0 597.3 0 576 0C554.7 0 533.3 0 512 0C490.7 0 469.3 0 448 0C426.7 0 405.3 0 384 0C362.7 0 341.3 0 320 0C298.7 0 277.3 0 256 0C234.7 0 213.3 0 192 0C170.7 0 149.3 0 128 0C106.7 0 85.3 0 64 0C42.7 0 21.3 0 10.7 0L0 0Z" fill="#090909"></path><path d="M0 195L10.7 178C21.3 161 42.7 127 64 135.2C85.3 143.3 106.7 193.7 128 197.2C149.3 200.7 170.7 157.3 192 151C213.3 144.7 234.7 175.3 256 196.2C277.3 217 298.7 228 320 226.2C341.3 224.3 362.7 209.7 384 197.8C405.3 186 426.7 177 448 174.3C469.3 171.7 490.7 175.3 512 186.2C533.3 197 554.7 215 576 212.3C597.3 209.7 618.7 186.3 640 185.5C661.3 184.7 682.7 206.3 704 185.7C725.3 165 746.7 102 768 71.3C789.3 40.7 810.7 42.3 832 58.5C853.3 74.7 874.7 105.3 896 137.8C917.3 170.3 938.7 204.7 949.3 221.8L960 239L960 53L949.3 56.7C938.7 60.3 917.3 67.7 896 59.5C874.7 51.3 853.3 27.7 832 18.7C810.7 9.7 789.3 15.3 768 24.3C746.7 33.3 725.3 45.7 704 44.7C682.7 43.7 661.3 29.3 640 34.8C618.7 40.3 597.3 65.7 576 72C554.7 78.3 533.3 65.7 512 62C490.7 58.3 469.3 63.7 448 71.8C426.7 80 405.3 91 384 99.2C362.7 107.3 341.3 112.7 320 101.8C298.7 91 277.3 64 256 63C234.7 62 213.3 87 192 91.5C170.7 96 149.3 80 128 66.5C106.7 53 85.3 42 64 40.2C42.7 38.3 21.3 45.7 10.7 49.3L0 53Z" fill="#070707"></path><path d="M0 390L10.7 376.5C21.3 363 42.7 336 64 324.3C85.3 312.7 106.7 316.3 128 337C149.3 357.7 170.7 395.3 192 407.8C213.3 420.3 234.7 407.7 256 385.2C277.3 362.7 298.7 330.3 320 343.8C341.3 357.3 362.7 416.7 384 396C405.3 375.3 426.7 274.7 448 273.8C469.3 273 490.7 372 512 400.8C533.3 429.7 554.7 388.3 576 373C597.3 357.7 618.7 368.3 640 372.8C661.3 377.3 682.7 375.7 704 372C725.3 368.3 746.7 362.7 768 331.2C789.3 299.7 810.7 242.3 832 253.2C853.3 264 874.7 343 896 397C917.3 451 938.7 480 949.3 494.5L960 509L960 237L949.3 219.8C938.7 202.7 917.3 168.3 896 135.8C874.7 103.3 853.3 72.7 832 56.5C810.7 40.3 789.3 38.7 768 69.3C746.7 100 725.3 163 704 183.7C682.7 204.3 661.3 182.7 640 183.5C618.7 184.3 597.3 207.7 576 210.3C554.7 213 533.3 195 512 184.2C490.7 173.3 469.3 169.7 448 172.3C426.7 175 405.3 184 384 195.8C362.7 207.7 341.3 222.3 320 224.2C298.7 226 277.3 215 256 194.2C234.7 173.3 213.3 142.7 192 149C170.7 155.3 149.3 198.7 128 195.2C106.7 191.7 85.3 141.3 64 133.2C42.7 125 21.3 159 10.7 176L0 193Z" fill="#050405"></path><path d="M0 428L10.7 419.8C21.3 411.7 42.7 395.3 64 411.5C85.3 427.7 106.7 476.3 128 493.5C149.3 510.7 170.7 496.3 192 476.5C213.3 456.7 234.7 431.3 256 434C277.3 436.7 298.7 467.3 320 480.8C341.3 494.3 362.7 490.7 384 486.2C405.3 481.7 426.7 476.3 448 484.5C469.3 492.7 490.7 514.3 512 504.3C533.3 494.3 554.7 452.7 576 453.5C597.3 454.3 618.7 497.7 640 498.7C661.3 499.7 682.7 458.3 704 445.7C725.3 433 746.7 449 768 457C789.3 465 810.7 465 832 460.5C853.3 456 874.7 447 896 456C917.3 465 938.7 492 949.3 505.5L960 519L960 507L949.3 492.5C938.7 478 917.3 449 896 395C874.7 341 853.3 262 832 251.2C810.7 240.3 789.3 297.7 768 329.2C746.7 360.7 725.3 366.3 704 370C682.7 373.7 661.3 375.3 640 370.8C618.7 366.3 597.3 355.7 576 371C554.7 386.3 533.3 427.7 512 398.8C490.7 370 469.3 271 448 271.8C426.7 272.7 405.3 373.3 384 394C362.7 414.7 341.3 355.3 320 341.8C298.7 328.3 277.3 360.7 256 383.2C234.7 405.7 213.3 418.3 192 405.8C170.7 393.3 149.3 355.7 128 335C106.7 314.3 85.3 310.7 64 322.3C42.7 334 21.3 361 10.7 374.5L0 388Z" fill="#030203"></path><path d="M0 541L10.7 541C21.3 541 42.7 541 64 541C85.3 541 106.7 541 128 541C149.3 541 170.7 541 192 541C213.3 541 234.7 541 256 541C277.3 541 298.7 541 320 541C341.3 541 362.7 541 384 541C405.3 541 426.7 541 448 541C469.3 541 490.7 541 512 541C533.3 541 554.7 541 576 541C597.3 541 618.7 541 640 541C661.3 541 682.7 541 704 541C725.3 541 746.7 541 768 541C789.3 541 810.7 541 832 541C853.3 541 874.7 541 896 541C917.3 541 938.7 541 949.3 541L960 541L960 517L949.3 503.5C938.7 490 917.3 463 896 454C874.7 445 853.3 454 832 458.5C810.7 463 789.3 463 768 455C746.7 447 725.3 431 704 443.7C682.7 456.3 661.3 497.7 640 496.7C618.7 495.7 597.3 452.3 576 451.5C554.7 450.7 533.3 492.3 512 502.3C490.7 512.3 469.3 490.7 448 482.5C426.7 474.3 405.3 479.7 384 484.2C362.7 488.7 341.3 492.3 320 478.8C298.7 465.3 277.3 434.7 256 432C234.7 429.3 213.3 454.7 192 474.5C170.7 494.3 149.3 508.7 128 491.5C106.7 474.3 85.3 425.7 64 409.5C42.7 393.3 21.3 409.7 10.7 417.8L0 426Z" fill="#000000"></path></svg>